Coordinates
version=1
nRows=14
nColumns=36
inDegrees=yes

Units are S.I. units (second, meters, Newtons, ...)
If the header above contains a line with 'inDegrees', this indicates whether rotational values are in degrees (yes) or radians (no).

endheader
time	pelvis_tilt	pelvis_list	pelvis_rotation	pelvis_tx	pelvis_ty	pelvis_tz	hip_flexion_r	hip_adduction_r	hip_rotation_r	knee_angle_r	knee_angle_r_beta	ankle_angle_r	subtalar_angle_r	mtp_angle_r	hip_flexion_l	hip_adduction_l	hip_rotation_l	knee_angle_l	knee_angle_l_beta	ankle_angle_l	subtalar_angle_l	mtp_angle_l	lumbar_extension	lumbar_bending	lumbar_rotation	arm_flex_r	arm_add_r	arm_rot_r	elbow_flex_r	pro_sup_r	arm_flex_l	arm_add_l	arm_rot_l	elbow_flex_l	pro_sup_l
      1.27000000	     -6.60219837	      2.64590431	      0.22507450	      1.09555068	      0.92046830	     -0.21182818	     32.00025400	     -1.32197308	      1.76136356	      9.64402919	      0.16832006	      7.43965993	     -0.70069272	     -7.40268390	     -3.49628334	      5.70174866	     10.96057576	      6.88499084	      0.12016576	     11.94324445	     -9.64660486	     -7.40268390	    -10.96988806	     -4.84140083	     -5.95319362	     -9.12438362	     -6.81467591	     -9.09393451	     42.90784901	     99.38859935	      2.74007047	    -10.82357296	    -20.00206476	     47.24261750	     98.00445578
      1.28000000	     -6.13276137	      2.58838542	      0.42312279	      1.10565217	      0.91949257	     -0.21248528	     31.33382859	     -1.57730232	     -0.21854256	      7.51612616	      0.13118115	      8.85272735	      3.37450244	     -7.40732221	     -4.72638643	      5.60033486	     10.96817251	      6.84326911	      0.11943758	     12.45291329	     -9.01586733	     -7.40732221	    -11.25418642	     -4.15550030	     -6.19161662	     -9.52803278	     -6.77187464	    -10.07204559	     42.72648548	     99.48168405	      3.05821825	    -10.96049298	    -18.85473243	     46.56290538	     98.13246183
      1.29000000	     -5.91607178	      2.50550395	      0.58477751	      1.11572269	      0.91816597	     -0.21294192	     30.80038408	     -1.66104493	     -1.33555042	      5.45958839	      0.09528779	      9.15774794	      5.26921053	     -7.41015961	     -5.58689086	      5.47763749	     11.01694583	      7.00952709	      0.12233933	     12.79288139	     -8.81986148	     -7.41015961	    -11.23700042	     -3.46709666	     -6.59199194	     -9.81761573	     -6.77578164	    -10.72353273	     42.39636399	     99.52417356	      3.09560746	    -11.01181298	    -18.21574896	     46.09233241	     98.20041013
      1.30000000	     -5.69482584	      2.39856328	      0.74825088	      1.12591691	      0.91680192	     -0.21346266	     30.27721666	     -1.71913315	     -2.35599943	      3.85872355	      0.06734743	      9.49198513	      6.79573664	     -7.41266729	     -6.43406883	      5.33808625	     11.03939913	      7.20953201	      0.12583007	     13.16515572	     -8.60057297	     -7.41266729	    -11.21379282	     -2.71441712	     -6.99101770	    -10.07953478	     -6.84077283	    -11.38254301	     42.04140500	     99.55684535	      3.13535635	    -11.05176113	    -17.51457803	     45.53639765	     98.26244681
      1.31000000	     -5.57989657	      2.23970719	      0.89630806	      1.13623140	      0.91528990	     -0.21391729	     29.88027769	     -1.69152058	     -3.08119333	      2.71548556	      0.04739416	      9.83628197	      7.38374209	     -7.41392846	     -7.12350304	      5.15008282	     11.10215450	      7.52003684	      0.13124940	     13.38738561	     -8.52851276	     -7.41392846	    -11.03542799	     -1.89734857	     -7.39767469	    -10.32070703	     -6.94342018	    -11.84137080	     41.69333635	     99.55439324	      3.06732064	    -11.01573534	    -17.05909772	     45.09766218	     98.29073840
      1.32000000	     -5.58565607	      2.34723516	      0.75957534	      1.14659662	      0.91349341	     -0.21419138	     29.86655503	     -1.81351603	     -3.36603279	      2.40427637	      0.04196254	      9.96989498	      7.34204704	     -7.41408779	     -7.76006699	      5.30576898	     11.05983084	      7.69892853	      0.13437165	     13.42390860	     -8.53188567	     -7.41408779	    -10.75289211	     -1.45319586	     -7.59839267	    -10.69054003	     -7.18989372	    -11.99593754	     41.47154613	     99.53576415	      2.86761025	    -10.79533228	    -16.93364708	     44.98257647	     98.29520522
      1.33000000	     -5.20008107	      1.85108472	      0.98627724	      1.15752322	      0.91243273	     -0.21477896	     29.02266142	     -1.50711075	     -4.45521131	      1.78645224	      0.03117947	     10.33162526	      7.74671810	     -7.41874508	     -8.79390743	      4.70577418	     10.98760626	      7.95947812	      0.13891910	     14.10206725	     -7.87454201	     -7.41874508	    -10.85304800	     -0.17418095	     -7.62356034	    -11.03843506	     -7.23508601	    -13.42631969	     40.96367032	     99.63432906	      3.34162968	    -10.88932035	    -15.01665215	     43.53746886	     98.46893750
      1.34000000	     -5.10248328	      1.55594226	      0.96895157	      1.16845951	      0.91088091	     -0.21522668	     28.66538167	     -1.29081860	     -4.77676594	      1.82094868	      0.03178155	     10.51485515	      7.21459941	     -7.41936151	     -9.52020810	      4.41715137	     10.92881818	      8.23215613	      0.14367823	     14.18841936	     -8.00101053	     -7.41936151	    -10.62986168	      0.83187942	     -7.94587250	    -11.26021829	     -7.49795749	    -13.71860433	     40.66898867	     99.62467827	      3.10049217	    -10.56221018	    -14.80885712	     43.24191770	     98.47672398
      1.35000000	     -4.91743987	      1.21245964	      0.95566702	      1.17963578	      0.90950716	     -0.21569637	     28.15407932	     -1.02217984	     -5.11561647	      1.97986493	      0.03455516	     10.28363616	      6.34361455	     -7.42026293	    -10.38323142	      4.07355879	     10.85891343	      8.43965369	      0.14729974	     14.31685103	     -8.06054554	     -7.42026293	    -10.51369306	      1.91061715	     -8.21620411	    -11.42557831	     -7.79727215	    -14.14851516	     40.21539351	     99.61253139	      2.93351949	    -10.24601957	    -14.47700334	     42.77430547	     98.49706688
      1.36000000	     -4.78313857	      0.78618491	      0.90251652	      1.19108380	      0.90811661	     -0.21609176	     27.63752651	     -0.63566146	     -5.31516962	      2.22894666	      0.03890246	      9.60907763	      5.23411013	     -7.42138899	    -11.20543928	      3.64623049	     10.69582823	      8.64522452	      0.15088763	     14.37740246	     -8.06160350	     -7.42138899	    -10.31967189	      3.09650038	     -8.39126611	    -11.63667307	     -8.12467287	    -14.66359199	     39.75039679	     99.61256590	      2.76484499	     -9.87496085	    -14.04716922	     42.22791481	     98.54224404
      1.37000000	     -4.77298089	      0.33644237	      0.73074564	      1.20246409	      0.90662469	     -0.21629139	     27.11028628	     -0.11341519	     -4.61994603	      2.23681510	      0.03903979	      7.79178074	      2.85538868	     -7.42543185	    -11.86154084	      3.21389873	     10.39211517	      8.92203824	      0.15571894	     14.52967077	     -7.70910768	     -7.42543185	    -10.00486637	      4.32336712	     -8.18197148	    -12.02120616	     -8.36328210	    -15.77990437	     39.52123978	     99.79904205	      2.85627368	     -9.54130218	    -12.98157002	     41.24027580	     98.79788341
      1.38000000	     -4.73086605	     -0.25054969	      0.64787711	      1.21419555	      0.90534830	     -0.21665572	     26.63357414	      0.45152953	     -5.05534867	      2.53764946	      0.04429034	      6.75596452	      2.52774744	     -7.42664611	    -12.52064777	      2.63505477	     10.06492428	      9.26926833	      0.16177925	     14.36347013	     -7.81713440	     -7.42664611	     -9.71899063	      5.72313247	     -8.36024283	    -12.20348667	     -8.78442278	    -16.21642175	     39.17330410	     99.83374078	      2.53409837	     -9.03238522	    -12.73898070	     40.89081742	     98.87178526
      1.39000000	     -4.78410203	     -0.93510550	      0.49203286	      1.22606477	      0.90416437	     -0.21698844	     26.17929761	      1.15784024	     -5.41777272	      2.68489494	      0.04686026	      5.50296502	      2.35887684	     -7.42746838	    -13.10381326	      1.97943888	      9.68217323	      9.57110719	      0.16704733	     14.12402322	     -7.94496280	     -7.42746838	     -9.33816647	      7.27761038	     -8.49353298	    -12.33795748	     -9.26383935	    -16.64335975	     38.79246812	     99.84095597	      2.16129194	     -8.41507232	    -12.50993478	     40.51899889	     98.93085542
      1.40000000	     -4.81139024	     -1.74333483	      0.33867098	      1.23801425	      0.90333220	     -0.21732883	     25.60176191	      2.00226726	     -5.78640063	      2.65707173	      0.04637465	      3.92202124	      2.32008584	     -7.42827723	    -13.64571087	      1.20201704	      9.23703463	      9.99718911	      0.17448387	     13.74630572	     -8.10460641	     -7.42827723	     -9.01082324	      9.00100275	     -8.59484532	    -12.42918285	     -9.79603637	    -17.11375408	     38.40540314	     99.84634819	      1.83284282	     -7.77386870	    -12.27221956	     40.09011121	     98.99841793
